<?xml version="1.0" encoding="UTF-8" standalone="no"?><!DOCTYPE svg PUBLIC "-//W3C//DTD SVG 1.1//EN" "http://www.w3.org/Graphics/SVG/1.1/DTD/svg11.dtd"><svg width="100%" height="100%" viewBox="0 0 2500 1000" version="1.1" xmlns="http://www.w3.org/2000/svg" xmlns:xlink="http://www.w3.org/1999/xlink" xml:space="preserve" xmlns:serif="http://www.serif.com/" style="fill-rule:evenodd;clip-rule:evenodd;stroke-linejoin:round;stroke-miterlimit:2;"><rect x="0" y="0" width="2500" height="1000" style="fill:#f0141e;fill-rule:nonzero;"/><path d="M2115.59,233.095l0,-153.14l-428.53,0l-70.55,511.41l-69.7,-511.41l-154.54,0l17.27,136.56c-17.815,-35 -81.055,-136.56 -220.305,-136.56c-0.925,-0.06 -154.725,0 -154.725,0l-0.64,745.42l-112.615,-745.42l-202.42,-0.06l-116.52,772.335l0.065,-772.275l-193.76,-0l-69.825,433.84l-68.02,-433.84l-193.79,-0l0,839.66l152.615,-0l0,-404.72l69.43,404.72l81.12,-0l68.45,-404.72l0,404.72l294.19,-0l17.79,-129.15l118.44,-0l17.79,129.15l288.855,0.185l0.21,-0l0,-0.185l0.36,-0l0,-272.52l35.37,-5.12l73.305,277.825l149.415,-0l-0.06,-0.185l0.425,-0l-96.19,-325.55c48.705,-35.895 103.76,-126.895 89.11,-213.99l0,-0.03c0.18,1.13 90.82,540.13 90.82,540.13l177.67,-0.55l121.395,-761.015l0,761.015l288.085,-0l0,-150.995l-136.72,-0l0,-192.535l136.72,-0l0,-153.3l-136.72,-0l0,-189.7l136.73,-0Zm-1337.04,424.255l41.935,-359.01l43.45,359.01l-85.385,-0Zm443.54,-165.775c-11.72,5.615 -23.92,8.425 -35.86,8.455l0,-270.05c0.185,-0 0.465,-0.03 0.765,-0.03c11.9,-0.09 101.015,3.57 101.015,133.545c0,67.99 -30.3,110.87 -65.92,128.08Zm1200.93,276.915l0,150.94l-281.07,-0l0,-839.595l151.36,-0l0,688.655l129.71,-0Z" style="fill:#fff;fill-rule:nonzero;"/><g transform="matrix(288,0,0,288,2125.36,612.42)"></g><text x="365.967px" y="612.42px" style="font-family:'BMDoHyeon-OTF', 'BM Dohyeon', sans-serif;font-size:288px;">UNOFFICIAL</text></svg>